<?xml version="1.0" encoding="UTF-8"?>
<svg xmlns="http://www.w3.org/2000/svg" xmlns:xlink="http://www.w3.org/1999/xlink" width="19pt" height="19pt" viewBox="0 0 19 19" version="1.1">
<g id="surface1">
<path style=" stroke:none;fill-rule:nonzero;fill:rgb(0%,0%,0%);fill-opacity:1;" d="M 18.75 9.589844 C 18.75 14.769531 15.03125 18.457031 9.527344 18.457031 C 4.257812 18.457031 0 14.398438 0 9.375 C 0 4.351562 4.257812 0.292969 9.527344 0.292969 C 12.09375 0.292969 14.253906 1.191406 15.917969 2.671875 L 13.324219 5.046875 C 9.929688 1.921875 3.625 4.265625 3.625 9.375 C 3.625 12.542969 6.28125 15.109375 9.527344 15.109375 C 13.300781 15.109375 14.71875 12.535156 14.9375 11.195312 L 9.527344 11.195312 L 9.527344 8.070312 L 18.597656 8.070312 C 18.6875 8.535156 18.75 8.984375 18.75 9.589844 Z M 18.75 9.589844 "/>
</g>
</svg>
