<?xml version="1.0" encoding="UTF-8"?>
<svg xmlns="http://www.w3.org/2000/svg" xmlns:xlink="http://www.w3.org/1999/xlink" width="17pt" height="18pt" viewBox="0 0 17 18" version="1.1">
<g id="surface1">
<path style=" stroke:none;fill-rule:nonzero;fill:rgb(0%,0%,0%);fill-opacity:1;" d="M 3.699219 15.75 L 0.273438 15.75 L 0.273438 5.234375 L 3.699219 5.234375 Z M 1.984375 3.800781 C 0.890625 3.800781 0 2.9375 0 1.890625 C 0 0.847656 0.890625 0 1.984375 0 C 3.082031 0 3.96875 0.847656 3.96875 1.890625 C 3.96875 2.9375 3.082031 3.800781 1.984375 3.800781 Z M 16.523438 15.75 L 13.105469 15.75 L 13.105469 10.628906 C 13.105469 9.414062 13.078125 7.847656 11.320312 7.847656 C 9.542969 7.847656 9.269531 9.171875 9.269531 10.542969 L 9.269531 15.75 L 5.847656 15.75 L 5.847656 5.234375 L 9.132812 5.234375 L 9.132812 6.671875 L 9.179688 6.671875 C 9.636719 5.84375 10.753906 4.96875 12.421875 4.96875 C 15.890625 4.96875 16.527344 7.144531 16.527344 9.976562 L 16.527344 15.75 Z M 16.523438 15.75 "/>
</g>
</svg>
